<svg width="40" height="41" viewBox="0 0 40 41" fill="none" xmlns="http://www.w3.org/2000/svg">
<g clip-path="url(#clip0_347_445)">
<path d="M0 36.6499C0 38.7202 1.91964 40.3999 4.28571 40.3999H35.7143C38.0804 40.3999 40 38.7202 40 36.6499V15.3999H0V36.6499ZM28.5714 21.3374C28.5714 20.8218 29.0536 20.3999 29.6429 20.3999H33.2143C33.8036 20.3999 34.2857 20.8218 34.2857 21.3374V24.4624C34.2857 24.978 33.8036 25.3999 33.2143 25.3999H29.6429C29.0536 25.3999 28.5714 24.978 28.5714 24.4624V21.3374ZM28.5714 31.3374C28.5714 30.8218 29.0536 30.3999 29.6429 30.3999H33.2143C33.8036 30.3999 34.2857 30.8218 34.2857 31.3374V34.4624C34.2857 34.978 33.8036 35.3999 33.2143 35.3999H29.6429C29.0536 35.3999 28.5714 34.978 28.5714 34.4624V31.3374ZM17.1429 21.3374C17.1429 20.8218 17.625 20.3999 18.2143 20.3999H21.7857C22.375 20.3999 22.8571 20.8218 22.8571 21.3374V24.4624C22.8571 24.978 22.375 25.3999 21.7857 25.3999H18.2143C17.625 25.3999 17.1429 24.978 17.1429 24.4624V21.3374ZM17.1429 31.3374C17.1429 30.8218 17.625 30.3999 18.2143 30.3999H21.7857C22.375 30.3999 22.8571 30.8218 22.8571 31.3374V34.4624C22.8571 34.978 22.375 35.3999 21.7857 35.3999H18.2143C17.625 35.3999 17.1429 34.978 17.1429 34.4624V31.3374ZM5.71429 21.3374C5.71429 20.8218 6.19643 20.3999 6.78571 20.3999H10.3571C10.9464 20.3999 11.4286 20.8218 11.4286 21.3374V24.4624C11.4286 24.978 10.9464 25.3999 10.3571 25.3999H6.78571C6.19643 25.3999 5.71429 24.978 5.71429 24.4624V21.3374ZM5.71429 31.3374C5.71429 30.8218 6.19643 30.3999 6.78571 30.3999H10.3571C10.9464 30.3999 11.4286 30.8218 11.4286 31.3374V34.4624C11.4286 34.978 10.9464 35.3999 10.3571 35.3999H6.78571C6.19643 35.3999 5.71429 34.978 5.71429 34.4624V31.3374ZM35.7143 5.3999H31.4286V1.6499C31.4286 0.962402 30.7857 0.399902 30 0.399902H27.1429C26.3571 0.399902 25.7143 0.962402 25.7143 1.6499V5.3999H14.2857V1.6499C14.2857 0.962402 13.6429 0.399902 12.8571 0.399902H10C9.21429 0.399902 8.57143 0.962402 8.57143 1.6499V5.3999H4.28571C1.91964 5.3999 0 7.07959 0 9.1499V12.8999H40V9.1499C40 7.07959 38.0804 5.3999 35.7143 5.3999Z" fill="white"/>
</g>
<defs>
<clipPath id="clip0_347_445">
<rect width="40" height="40" fill="white" transform="translate(0 0.399902)"/>
</clipPath>
</defs>
</svg>
