<svg width="40" height="41" viewBox="0 0 40 41" fill="none" xmlns="http://www.w3.org/2000/svg">
<path d="M20 0.399902C8.95161 0.399902 0 9.35151 0 20.3999C0 31.4483 8.95161 40.3999 20 40.3999C31.0484 40.3999 40 31.4483 40 20.3999C40 9.35151 31.0484 0.399902 20 0.399902ZM24.6048 28.6338L17.4919 23.4644C17.2419 23.2789 17.0968 22.9886 17.0968 22.6822V9.10958C17.0968 8.57732 17.5323 8.14184 18.0645 8.14184H21.9355C22.4677 8.14184 22.9032 8.57732 22.9032 9.10958V20.2144L28.0242 23.9402C28.4597 24.2547 28.5484 24.8596 28.2339 25.2951L25.9597 28.4241C25.6452 28.8515 25.0403 28.9483 24.6048 28.6338Z" fill="white"/>
</svg>
