<svg width="40" height="41" viewBox="0 0 40 41" fill="none" xmlns="http://www.w3.org/2000/svg">
<path fill-rule="evenodd" clip-rule="evenodd" d="M3.375 29.8999V8.5249H36.625V29.8999H3.375ZM36.625 6.1499H3.375C2.74511 6.1499 2.14102 6.40012 1.69562 6.84552C1.25022 7.29092 1 7.89501 1 8.5249V32.2749C1 32.9048 1.25022 33.5089 1.69562 33.9543C2.14102 34.3997 2.74511 34.6499 3.375 34.6499H36.625C37.2549 34.6499 37.859 34.3997 38.3044 33.9543C38.7498 33.5089 39 32.9048 39 32.2749V8.5249C39 7.89501 38.7498 7.29092 38.3044 6.84552C37.859 6.40012 37.2549 6.1499 36.625 6.1499ZM34.25 20.3999H24.75V27.5249H34.25V20.3999Z" fill="white"/>
</svg>
