<svg width="40" height="41" viewBox="0 0 40 41" fill="none" xmlns="http://www.w3.org/2000/svg">
<path fill-rule="evenodd" clip-rule="evenodd" d="M21.2667 25.8643V11.5332H18.7333V25.8466L13.8592 20.182L11.9389 21.8287L20.0025 31.2071L28.0965 21.8338L26.1763 20.1795L21.2667 25.8643ZM20 1.3999C9.50693 1.3999 1 9.90683 1 20.3999C1 30.893 9.50693 39.3999 20 39.3999C30.4931 39.3999 39 30.893 39 20.3999C39 9.90683 30.4931 1.3999 20 1.3999ZM20 36.8666C10.9205 36.8666 3.53333 29.4794 3.53333 20.3999C3.53333 11.3204 10.9205 3.93324 20 3.93324C29.0795 3.93324 36.4667 11.3204 36.4667 20.3999C36.4667 29.4794 29.0795 36.8666 20 36.8666Z" fill="white"/>
</svg>
