<svg width="40" height="41" viewBox="0 0 40 41" fill="none" xmlns="http://www.w3.org/2000/svg">
<path fill-rule="evenodd" clip-rule="evenodd" d="M13.1919 6.86765V28.3226C11.9423 26.7766 10.0337 25.7837 7.89671 25.7837C4.14281 25.7837 1.08862 28.8379 1.08862 32.5918C1.08862 36.3457 4.14281 39.3999 7.89671 39.3999C11.6506 39.3999 14.7048 36.3457 14.7048 32.5918V8.09216L37.3984 3.2674V23.7153C36.1493 22.1693 34.2412 21.1765 32.1032 21.1765C28.3493 21.1765 25.2952 24.2306 25.2952 27.9845C25.2952 31.7384 28.3493 34.7926 32.1032 34.7926C35.8571 34.7926 38.9113 31.7384 38.9113 27.9845V1.3999L13.1919 6.86765ZM7.89671 37.887C4.9768 37.887 2.60153 35.5113 2.60153 32.5918C2.60153 29.6714 4.9768 27.2966 7.89671 27.2966C10.8166 27.2966 13.1919 29.6714 13.1919 32.5918C13.1919 35.5108 10.8157 37.887 7.89671 37.887ZM32.1032 33.2797C29.1833 33.2797 26.8081 30.9044 26.8081 27.9845C26.8081 25.0656 29.1833 22.6894 32.1032 22.6894C35.0232 22.6894 37.3984 25.0656 37.3984 27.9845C37.3984 30.9054 35.0222 33.2797 32.1032 33.2797Z" fill="white"/>
</svg>
