<svg width="40" height="41" viewBox="0 0 40 41" fill="none" xmlns="http://www.w3.org/2000/svg">
<path d="M20 1.3999C16.2422 1.3999 12.5687 2.51423 9.44417 4.60198C6.31964 6.68973 3.88436 9.65712 2.4463 13.1289C1.00823 16.6007 0.631969 20.421 1.36509 24.1066C2.09821 27.7923 3.90778 31.1777 6.56498 33.8349C9.22218 36.4921 12.6077 38.3017 16.2933 39.0348C19.9789 39.7679 23.7992 39.3917 27.271 37.9536C30.7428 36.5155 33.7102 34.0803 35.7979 30.9557C37.8857 27.8312 39 24.1577 39 20.3999C39 15.3608 36.9982 10.5281 33.435 6.96487C29.8718 3.40168 25.0391 1.3999 20 1.3999V1.3999ZM20 29.8999C18.1211 29.8999 16.2844 29.3427 14.7221 28.2989C13.1598 27.255 11.9422 25.7713 11.2232 24.0354C10.5041 22.2995 10.316 20.3894 10.6825 18.5465C11.0491 16.7037 11.9539 15.011 13.2825 13.6824C14.6111 12.3538 16.3038 11.449 18.1466 11.0824C19.9895 10.7159 21.8996 10.904 23.6355 11.623C25.3714 12.3421 26.8551 13.5597 27.899 15.122C28.9428 16.6842 29.5 18.521 29.5 20.3999C29.5 22.9195 28.4991 25.3358 26.7175 27.1174C24.9359 28.899 22.5196 29.8999 20 29.8999Z" fill="white"/>
</svg>
