<svg width="40" height="41" viewBox="0 0 40 41" fill="none" xmlns="http://www.w3.org/2000/svg">
<path d="M29.44 27.518L37.5502 37.0235L34.7596 39.3999L26.6712 29.9163C24.0551 31.6604 21.17 32.5324 18.016 32.5324C15.9085 32.5324 13.8918 32.1218 11.9661 31.3007C10.0403 30.4795 8.38338 29.3749 6.99529 27.9868C5.6072 26.5988 4.5026 24.9419 3.68148 23.0161C2.86035 21.0903 2.44976 19.0736 2.44971 16.9662C2.44965 14.8587 2.86024 12.8421 3.68148 10.9163C4.50271 8.99044 5.60732 7.33352 6.99529 5.94549C8.38327 4.55745 10.0402 3.45285 11.9661 2.63167C13.8919 1.81049 15.9086 1.3999 18.016 1.3999C20.1234 1.3999 22.14 1.81049 24.0659 2.63167C25.9917 3.45285 27.6487 4.55745 29.0366 5.94549C30.4246 7.33352 31.5292 8.99044 32.3505 10.9163C33.1717 12.8421 33.5823 14.8587 33.5822 16.9662C33.5822 18.3033 33.4151 19.6114 33.0808 20.8904C32.7465 22.1694 32.2705 23.3612 31.6528 24.4659C31.0351 25.5705 30.2975 26.5879 29.4399 27.518H29.44ZM18.0161 28.8696C19.6293 28.8696 21.17 28.5535 22.638 27.9213C24.1059 27.289 25.3704 26.4424 26.4314 25.3814C27.4923 24.3204 28.339 23.056 28.9712 21.588C29.6035 20.12 29.9196 18.5794 29.9196 16.9661C29.9196 15.3528 29.6035 13.8122 28.9712 12.3442C28.339 10.8762 27.4923 9.61169 26.4314 8.55067C25.3704 7.48964 24.1059 6.64302 22.638 6.01081C21.17 5.37861 19.6293 5.0625 18.0161 5.0625C16.4028 5.0625 14.8621 5.37861 13.3942 6.01081C11.9262 6.64302 10.6617 7.48967 9.60064 8.55075C8.53962 9.61183 7.693 10.8763 7.06079 12.3442C6.42858 13.812 6.11248 15.3527 6.11248 16.9661C6.11248 18.5795 6.42858 20.1201 7.06079 21.588C7.693 23.0558 8.53965 24.3203 9.60073 25.3814C10.6618 26.4425 11.9263 27.2891 13.3942 27.9213C14.862 28.5534 16.4027 28.8695 18.0161 28.8696Z" fill="white"/>
</svg>
