<svg width="40" height="41" viewBox="0 0 40 41" fill="none" xmlns="http://www.w3.org/2000/svg">
<path fill-rule="evenodd" clip-rule="evenodd" d="M29.3008 28.5933L37.4721 38.1819L36.0548 39.3999L27.8613 29.8113C25.0416 31.9519 21.8675 33.0222 18.3391 33.0222C16.1984 33.0222 14.1501 32.6051 12.194 31.771C10.238 30.9369 8.55498 29.815 7.14505 28.4051C5.73512 26.9952 4.61314 25.3122 3.7791 23.3561C2.94506 21.4 2.52801 19.3517 2.52795 17.211C2.5279 15.0704 2.94494 13.0221 3.7791 11.066C4.61326 9.10985 5.73524 7.42687 7.14505 6.017C8.55486 4.60713 10.2378 3.48515 12.194 2.65105C14.1502 1.81695 16.1985 1.3999 18.3391 1.3999C20.4797 1.3999 22.528 1.81695 24.4842 2.65105C26.4403 3.48515 28.1233 4.60713 29.5331 6.017C30.943 7.42687 32.0649 9.10985 32.8991 11.066C33.7333 13.0221 34.1503 15.0704 34.1502 17.211C34.1502 19.4107 33.7221 21.4923 32.8659 23.4558C32.0096 25.4193 30.8212 27.1318 29.3006 28.5933L29.3008 28.5933ZM18.3393 31.162C20.8637 31.162 23.1963 30.5382 25.3369 29.2907C27.4776 28.0432 29.1717 26.3491 30.4191 24.2085C31.6666 22.0679 32.2903 19.7354 32.2904 17.2109C32.2905 14.6864 31.6667 12.3538 30.4191 10.2132C29.1716 8.07259 27.4775 6.37856 25.3369 5.13111C23.1964 3.88365 20.8638 3.25992 18.3393 3.25992C15.8147 3.25992 13.4822 3.88365 11.3416 5.13111C9.20105 6.37856 7.50702 8.07259 6.25951 10.2132C5.01199 12.3538 4.38827 14.6864 4.38832 17.2109C4.38838 19.7354 5.01211 22.0679 6.25951 24.2085C7.5069 26.3491 9.20094 28.0432 11.3416 29.2907C13.4823 30.5382 15.8148 31.162 18.3393 31.162Z" fill="white"/>
</svg>
