<svg width="38" height="41" viewBox="0 0 38 41" fill="none" xmlns="http://www.w3.org/2000/svg">
<g clip-path="url(#clip0_349_1621)">
<path d="M14.249 5.95056L8.58544 12.8998H2.08857C1.24447 12.8998 0.560791 13.7388 0.560791 14.7748V26.0248C0.560791 27.0599 1.24447 27.8998 2.08857 27.8998H8.58544L14.249 34.849C15.2058 36.0232 16.8571 35.1982 16.8571 33.5232V7.27634C16.8571 5.59978 15.2045 4.7779 14.249 5.95056ZM29.1016 1.95993C28.3905 1.38728 27.435 1.62868 26.9684 2.5029C26.5012 3.37556 26.6998 4.54821 27.4109 5.12087C31.6294 8.51853 34.1471 14.2302 34.1471 20.4006C34.1471 26.5709 31.6294 32.2826 27.4109 35.6802C26.6998 36.2521 26.5012 37.4256 26.9684 38.2974C27.4166 39.1342 28.3644 39.4349 29.1016 38.8404C34.1891 34.742 37.2275 27.8474 37.2275 20.3998C37.2275 12.9521 34.1891 6.05837 29.1016 1.95993ZM31.1163 20.3998C31.1163 15.4365 29.0755 10.8732 25.6565 8.19353C24.9441 7.63571 23.9994 7.89509 23.5481 8.77634C23.0968 9.65759 23.3075 10.824 24.0198 11.3826C26.5502 13.3662 28.0608 16.7365 28.0608 20.3998C28.0608 24.0631 26.5502 27.4334 24.0198 29.417C23.3075 29.9748 23.0968 31.1412 23.5481 32.0232C23.9625 32.8326 24.8926 33.206 25.6565 32.606C29.0755 29.9263 31.1163 25.3638 31.1163 20.3998ZM22.0916 14.3943C21.3545 13.8998 20.4244 14.2256 20.0158 15.1326C19.609 16.0396 19.8783 17.1795 20.6173 17.6802C21.4391 18.2342 21.9497 19.2771 21.9497 20.3998C21.9497 21.5232 21.4391 22.5654 20.618 23.1193C19.8789 23.6201 19.6096 24.7599 20.0164 25.667C20.4257 26.5779 21.3564 26.9013 22.0923 26.4052C23.8893 25.1904 25.0059 22.8896 25.0059 20.399C25.0059 17.9084 23.8893 15.6084 22.0916 14.3943Z" fill="#B3B3B3"/>
</g>
<defs>
<clipPath id="clip0_349_1621">
<rect width="36.6667" height="40" fill="white" transform="translate(0.560791 0.399902)"/>
</clipPath>
</defs>
</svg>
