<?xml version="1.0" standalone="no"?>
<!DOCTYPE svg PUBLIC "-//W3C//DTD SVG 1.1//EN" "http://www.w3.org/Graphics/SVG/1.1/DTD/svg11.dtd" >
<svg xmlns="http://www.w3.org/2000/svg">
<metadata>Generated by IcoMoon</metadata>
<defs>
<font id="icomoon" horiz-adv-x="1024">
<font-face units-per-em="1024" ascent="960" descent="-64" />
<missing-glyph horiz-adv-x="1024" />
<glyph unicode="&#x20;" horiz-adv-x="512" d="" />
<glyph unicode="&#xe900;" glyph-name="add-plus" horiz-adv-x="999" d="M974.049 355.593h-379.629v-379.629h-189.815v379.629h-379.629v189.815h379.629v379.629h189.815v-379.629h379.629v-189.815z" />
<glyph unicode="&#xe901;" glyph-name="arrow-left" horiz-adv-x="999" d="M760.055-24.037l-555.665 474.537 555.665 474.537 34.579-40.432-508.316-434.105 508.316-434.106z" />
<glyph unicode="&#xe902;" glyph-name="arrow-right" horiz-adv-x="999" d="M238.97-24.037l-34.579 40.431 508.319 434.106-508.319 434.105 34.579 40.432 555.664-474.537z" />
<glyph unicode="&#xe903;" glyph-name="calendar" horiz-adv-x="999" d="M0 44.646c0-51.707 47.944-93.659 107.038-93.659h784.948c59.095 0 107.038 41.952 107.038 93.659v530.732h-999.024v-530.732zM713.588 427.085c0 12.877 12.043 23.415 26.761 23.415h89.198c14.718 0 26.759-10.537 26.759-23.415v-78.049c0-12.877-12.041-23.415-26.759-23.415h-89.198c-14.718 0-26.761 10.537-26.761 23.415v78.049zM713.588 177.329c0 12.877 12.043 23.415 26.761 23.415h89.198c14.718 0 26.759-10.537 26.759-23.415v-78.049c0-12.877-12.041-23.415-26.759-23.415h-89.198c-14.718 0-26.761 10.537-26.761 23.415v78.049zM428.154 427.085c0 12.877 12.041 23.415 26.759 23.415h89.198c14.718 0 26.759-10.537 26.759-23.415v-78.049c0-12.877-12.041-23.415-26.759-23.415h-89.198c-14.718 0-26.759 10.537-26.759 23.415v78.049zM428.154 177.329c0 12.877 12.041 23.415 26.759 23.415h89.198c14.718 0 26.759-10.537 26.759-23.415v-78.049c0-12.877-12.041-23.415-26.759-23.415h-89.198c-14.718 0-26.759 10.537-26.759 23.415v78.049zM142.718 427.085c0 12.877 12.042 23.415 26.759 23.415h89.198c14.718 0 26.761-10.537 26.761-23.415v-78.049c0-12.877-12.043-23.415-26.761-23.415h-89.198c-14.718 0-26.759 10.537-26.759 23.415v78.049zM142.718 177.329c0 12.877 12.042 23.415 26.759 23.415h89.198c14.718 0 26.761-10.537 26.761-23.415v-78.049c0-12.877-12.043-23.415-26.761-23.415h-89.198c-14.718 0-26.759 10.537-26.759 23.415v78.049zM891.986 825.134h-107.038v93.659c0 17.171-16.057 31.219-35.68 31.219h-71.358c-19.626 0-35.68-14.049-35.68-31.219v-93.659h-285.436v93.659c0 17.171-16.054 31.219-35.68 31.219h-71.358c-19.624 0-35.679-14.049-35.679-31.219v-93.659h-107.038c-59.094 0-107.038-41.951-107.038-93.659v-93.659h999.024v93.659c0 51.707-47.943 93.659-107.038 93.659z" />
<glyph unicode="&#xe904;" glyph-name="clock" horiz-adv-x="999" d="M499.512 950.012c-275.94 0-499.512-223.572-499.512-499.512s223.572-499.512 499.512-499.512c275.941 0 499.512 223.572 499.512 499.512s-223.572 499.512-499.512 499.512zM614.52 244.853l-177.649 129.109c-6.244 4.633-9.868 11.883-9.868 19.536v338.984c0 13.294 10.877 24.17 24.169 24.17h96.681c13.292 0 24.169-10.876 24.169-24.17v-277.35l127.9-93.054c10.877-7.855 13.092-22.963 5.237-33.839l-56.8-78.149c-7.855-10.675-22.963-13.092-33.839-5.237z" />
<glyph unicode="&#xe905;" glyph-name="close" horiz-adv-x="999" d="M999.024 849.396l-100.617 100.616-398.895-398.895-398.896 398.895-100.616-100.616 398.895-398.896-398.895-398.895 100.616-100.617 398.896 398.895 398.895-398.895 100.617 100.617-398.895 398.895 398.895 398.896z" />
<glyph unicode="&#xe906;" glyph-name="credit-card" horiz-adv-x="999" d="M84.293 213.232v533.854h830.439v-533.854h-830.439zM914.732 806.402h-830.439c-15.732 0-30.819-6.249-41.944-17.374s-17.374-26.212-17.374-41.944v-593.171c0-15.732 6.249-30.82 17.374-41.944s26.212-17.373 41.944-17.373h830.439c15.732 0 30.82 6.249 41.944 17.373s17.373 26.212 17.373 41.944v593.171c0 15.732-6.249 30.819-17.373 41.944s-26.212 17.374-41.944 17.374zM855.415 450.5h-237.268v-177.951h237.268v177.951z" />
<glyph unicode="&#xe907;" glyph-name="download" horiz-adv-x="999" d="M531.149 314.023v357.928h-63.273v-357.486l-121.734 141.477-47.961-41.127 201.393-234.231 202.153 234.104-47.958 41.317-122.62-141.981zM499.512 925.037c-262.071 0-474.537-212.466-474.537-474.537s212.466-474.537 474.537-474.537c262.072 0 474.537 212.465 474.537 474.537s-212.465 474.537-474.537 474.537zM499.512 39.234c-226.766 0-411.265 184.5-411.265 411.266s184.499 411.265 411.265 411.265c226.766 0 411.266-184.499 411.266-411.265s-184.5-411.266-411.266-411.266z" />
<glyph unicode="&#xe908;" glyph-name="heart" horiz-adv-x="999" d="M902.057 881.702c-106.926 104.138-265.948 85.406-364.092-30.327l-38.437-45.268-38.44 45.268c-97.949 115.733-257.165 134.464-364.089 30.327-122.534-119.524-128.973-334.042-19.317-463.601l377.555-445.54c24.389-28.764 63.998-28.764 88.389 0l377.554 445.54c109.85 129.558 103.412 344.077-19.121 463.601z" />
<glyph unicode="&#xe909;" glyph-name="home" horiz-adv-x="999" d="M499.515 869.901l-380.896-233.47v-613.214h241.333v330.797h281.233v-330.797h239.224v614.9l-380.893 231.784zM499.515 925.037l425.704-250.745v-698.328h-328.844v330.797h-191.613v-330.797h-330.954v696.078l425.707 252.995z" />
<glyph unicode="&#xe90a;" glyph-name="home-active" horiz-adv-x="999" d="M926.088-24.037h-331.781v337.171h-189.59v-337.171h-331.781v700.801l426.576 248.273 426.576-246.579v-702.494z" />
<glyph unicode="&#xe90b;" glyph-name="library" horiz-adv-x="999" d="M572.988 908.808l401.061-900.701-46.535-20.82-401.058 900.702 46.532 20.819zM24.976-12.101v925.808h51.435v-925.808h-51.435zM333.579-12.101v925.808h51.435v-925.808h-51.435z" />
<glyph unicode="&#xe90c;" glyph-name="library-active" horiz-adv-x="999" d="M592.906 898.268l381.143-855.97-89.612-39.569-381.14 855.969 89.61 39.569zM24.976 13.202v879.829h97.757v-879.829h-97.757zM269.372 13.202v879.829h97.76v-879.829h-97.76z" />
<glyph unicode="&#xe90d;" glyph-name="music" horiz-adv-x="999" d="M329.476 788.476v-535.85c-31.21 38.612-78.878 63.411-132.251 63.411-93.756 0-170.036-76.281-170.036-170.036s76.28-170.036 170.036-170.036c93.756 0 170.036 76.281 170.036 170.036v611.893l566.786 120.501v-510.699c-31.197 38.612-78.853 63.408-132.251 63.408-93.756 0-170.034-76.278-170.034-170.034s76.278-170.036 170.034-170.036c93.756 0 170.036 76.281 170.036 170.036v663.967l-642.358-136.56zM197.225 13.749c-72.927 0-132.25 59.335-132.25 132.251 0 72.939 59.324 132.251 132.25 132.251s132.251-59.312 132.251-132.251c0-72.904-59.347-132.251-132.251-132.251zM801.797 128.819c-72.926 0-132.248 59.325-132.248 132.251 0 72.901 59.322 132.248 132.248 132.248 72.929 0 132.251-59.347 132.251-132.248 0-72.951-59.347-132.251-132.251-132.251z" />
<glyph unicode="&#xe90e;" glyph-name="next" horiz-adv-x="1074" d="M15.329 950.012l865.266-499.512-865.266-499.512v999.024zM1054.658 895.41h-161.785v-889.818h161.785v889.818z" />
<glyph unicode="&#xe90f;" glyph-name="pause" horiz-adv-x="674" d="M227.688 950.012h-222.005v-999.024h222.005v999.024zM671.697 950.012h-222.006v-999.024h222.006v999.024z" />
<glyph unicode="&#xe910;" glyph-name="play" d="M916.198 450.5l-822.003 474.537v-949.073l822.003 474.537z" />
<glyph unicode="&#xe911;" glyph-name="prev" horiz-adv-x="1049" d="M1039.328-49.012l-865.266 499.512 865.266 499.512v-999.024zM0 5.595h161.785v889.819h-161.785v-889.819z" />
<glyph unicode="&#xe912;" glyph-name="round" horiz-adv-x="999" d="M499.512 925.037c-93.853 0-185.601-27.831-263.638-79.974s-138.86-126.255-174.776-212.965c-35.917-86.71-45.314-182.125-27.004-274.175 18.31-92.053 63.505-176.605 129.87-242.97s150.921-111.561 242.971-129.871c92.050-18.31 187.464-8.914 274.175 27.004s160.823 96.738 212.965 174.777c52.144 78.036 79.974 169.784 79.974 263.638 0 125.855-49.996 246.554-138.989 335.548s-209.693 138.989-335.547 138.989v0zM499.512 213.232c-46.927 0-92.799 13.916-131.819 39.986-39.019 26.072-69.43 63.128-87.387 106.484-17.96 43.355-22.658 91.061-13.504 137.089 9.156 46.025 31.754 88.301 64.937 121.484s75.459 55.781 121.484 64.937c46.028 9.154 93.733 4.456 137.089-13.502 43.355-17.96 80.411-48.37 106.484-87.39 26.070-39.017 39.986-84.892 39.986-131.819 0-62.929-24.998-123.277-69.495-167.774s-104.845-69.495-167.774-69.495z" />
<glyph unicode="&#xe913;" glyph-name="search" horiz-adv-x="999" d="M731.805 245.865l204.083-239.481-35.398-30.42-204.638 239.481c-70.424-53.463-149.699-80.194-237.823-80.194-53.465 0-104.623 10.417-153.478 31.249-48.852 20.832-90.887 48.852-126.101 84.065s-63.236 77.247-84.067 126.102c-20.831 48.855-31.247 100.012-31.248 153.478-0.001 53.463 10.415 104.62 31.248 153.475 20.834 48.856 48.856 90.889 84.067 126.102s77.243 63.234 126.101 84.067c48.857 20.832 100.015 31.248 153.478 31.248s104.62-10.416 153.478-31.248c48.855-20.832 90.889-48.854 126.099-84.067 35.213-35.212 63.233-77.246 84.068-126.102s31.249-100.012 31.247-153.475c0-54.939-10.692-106.928-32.076-155.968-21.387-49.040-51.068-91.81-89.046-128.312h0.005zM458.035 181.71c63.048 0 121.307 15.58 174.769 46.737 53.465 31.157 95.776 73.468 126.931 126.931 31.157 53.463 46.734 111.718 46.737 174.769s-15.577 121.309-46.737 174.772c-31.157 53.463-73.468 95.772-126.931 126.928-53.46 31.156-111.718 46.734-174.769 46.734-63.053 0-121.309-15.578-174.772-46.734-53.462-31.156-95.771-73.465-126.928-126.928s-46.735-111.721-46.734-174.772c0.001-63.051 15.58-121.307 46.734-174.769s73.464-95.774 126.928-126.931c53.465-31.157 111.721-46.737 174.772-46.737z" />
<glyph unicode="&#xe914;" glyph-name="search-active" horiz-adv-x="999" d="M735.282 272.721l202.557-237.406-69.697-59.352-202.013 236.859c-65.339-43.56-137.396-65.339-216.169-65.339-52.636 0-103.004 10.255-151.1 30.762-48.098 20.51-89.481 48.098-124.149 82.767-34.668 34.666-62.256 76.048-82.764 124.146s-30.763 98.466-30.764 151.1c-0.001 52.636 10.253 103.002 30.764 151.1 20.511 48.1 48.099 89.482 82.764 124.149s76.048 62.255 124.149 82.765c48.098 20.509 98.466 30.764 151.1 30.764s102.999-10.255 151.1-30.764c48.098-20.509 89.483-48.098 124.146-82.765 34.666-34.667 62.254-76.049 82.767-124.149 20.51-48.098 30.765-98.464 30.762-151.1 0-33.395-4.173-66.065-12.523-98.009s-20.238-61.71-35.665-89.3c-15.427-27.588-33.849-52.998-55.269-76.228h0.002zM449.963 238.964c40.291 0 78.771 7.895 115.435 23.684 36.662 15.792 68.243 36.936 94.742 63.436 26.497 26.499 47.643 58.078 63.433 94.742 15.792 36.664 23.687 75.142 23.687 115.435s-7.895 78.771-23.687 115.435c-15.79 36.664-36.936 68.246-63.433 94.746-26.499 26.5-58.081 47.645-94.742 63.435-36.664 15.79-75.144 23.685-115.435 23.685-40.293 0-78.773-7.895-115.435-23.685-36.664-15.79-68.246-36.935-94.746-63.437s-47.644-58.082-63.434-94.744c-15.79-36.659-23.685-75.139-23.685-115.435s7.895-78.773 23.685-115.435c15.79-36.659 36.935-68.241 63.437-94.742s58.083-47.646 94.744-63.436c36.659-15.787 75.139-23.682 115.435-23.684z" />
<glyph unicode="&#xe915;" glyph-name="Vector" horiz-adv-x="1648" d="M212.427 950.012l618.829-617.479 618.828 617.479 190.099-190.098-808.928-808.927-808.926 808.927 190.098 190.098z" />
<glyph unicode="&#xe916;" glyph-name="volume-down" horiz-adv-x="924" d="M518.491 809.444l-212.178-173.58h-243.395c-31.623 0-57.236-20.957-57.236-46.829v-280.976c0-25.855 25.613-46.829 57.236-46.829h243.395l212.178-173.561c35.845-29.326 97.707-8.721 97.707 33.113v655.531c0 41.893-61.91 62.4-97.707 33.132zM812.302 598.555c-27.616 12.353-62.459 4.216-77.769-18.437-15.238-22.655-5.15-51.123 22.538-63.63 30.787-13.854 49.914-39.884 49.914-67.941s-19.126-54.087-49.891-67.921c-27.688-12.508-37.776-40.977-22.535-63.63 15.333-22.75 50.198-30.83 77.769-18.439 67.322 30.343 109.153 87.804 109.153 150.011 0 62.204-41.832 119.648-109.178 149.989z" />
<glyph unicode="&#xe917;" glyph-name="volume-off" horiz-adv-x="949" d="M791.435 811.478l-318.374-173.659h-364.878c-22.77 0-44.607-4.933-60.708-13.717-16.101-8.781-25.146-20.692-25.146-33.113v-280.976c0-12.42 9.045-24.331 25.146-33.113s37.938-13.717 60.708-13.717h365.092l318.159-173.658c53.66-29.269 146.667-8.721 146.667 33.17v655.61c0 41.893-93.007 62.439-146.667 33.171z" />
<glyph unicode="&#xe918;" glyph-name="volume-up" horiz-adv-x="949" d="M355.877 811.381l-141.451-173.562h-162.263c-21.082 0-38.157-20.955-38.157-46.829v-280.976c0-25.852 17.075-46.829 38.157-46.829h162.263l141.451-173.561c23.897-29.326 65.139-8.721 65.139 33.113v655.531c0 41.873-41.275 62.4-65.139 33.112zM726.83 911.050c-17.76 14.302-41.624 8.273-53.278-13.561-11.669-21.795-6.708-51.083 11.052-65.385 105.36-84.859 168.241-227.511 168.241-381.621 0-154.107-62.881-296.76-168.241-381.617-17.76-14.284-22.72-43.592-11.052-65.366 11.194-20.9 34.866-28.41 53.278-13.562 127.063 102.36 202.949 274.557 202.949 460.565 0 186.011-75.886 358.186-202.949 460.547zM777.149 450.503c0 123.961-50.97 237.933-136.362 304.859-17.793 13.932-41.387 7.454-52.659-14.556s-6.009-51.142 11.781-65.093c63.198-49.542 100.926-133.717 100.926-225.21s-37.728-175.668-100.926-225.21c-17.79-13.931-23.052-43.063-11.781-65.091 10.35-20.215 33.58-29.541 52.659-14.556 85.392 66.927 136.362 180.878 136.362 304.857zM551.751 600.494c-18.41 12.35-41.639 4.213-51.844-18.439-10.16-22.653-3.434-51.123 15.023-63.628 20.525-13.836 33.278-39.884 33.278-67.924 0-28.058-12.753-54.087-33.26-67.921-18.459-12.508-25.185-40.975-15.025-63.63 10.223-22.75 33.467-30.827 51.847-18.437 44.881 30.34 72.769 87.804 72.769 150.009s-27.888 119.648-72.786 149.971z" />
</font>
</defs>
</svg>
